<?xml version="1.0" encoding="UTF-8" standalone="no"?>
<svg
   xmlns:dc="http://purl.org/dc/elements/1.1/"
   xmlns:cc="http://creativecommons.org/ns#"
   xmlns:rdf="http://www.w3.org/1999/02/22-rdf-syntax-ns#"
   xmlns:svg="http://www.w3.org/2000/svg"
   xmlns="http://www.w3.org/2000/svg"
   xmlns:sodipodi="http://sodipodi.sourceforge.net/DTD/sodipodi-0.dtd"
   xmlns:inkscape="http://www.inkscape.org/namespaces/inkscape"
   version="1.1"
   width="512"
   height="512"
   id="svg9"
   sodipodi:docname="docker_icon.svg"
   inkscape:version="1.0.2 (e86c870879, 2021-01-15)">
  <metadata
     id="metadata15">
    <rdf:RDF>
      <cc:Work
         rdf:about="">
        <dc:format>image/svg+xml</dc:format>
        <dc:type
           rdf:resource="http://purl.org/dc/dcmitype/StillImage" />
      </cc:Work>
    </rdf:RDF>
  </metadata>
  <defs
     id="defs13" />
  <sodipodi:namedview
     pagecolor="#ffffff"
     bordercolor="#666666"
     borderopacity="1"
     objecttolerance="10"
     gridtolerance="10"
     guidetolerance="10"
     inkscape:pageopacity="0"
     inkscape:pageshadow="2"
     inkscape:window-width="1920"
     inkscape:window-height="1163"
     id="namedview11"
     showgrid="false"
     inkscape:zoom="0.24438477"
     inkscape:cx="-208.76068"
     inkscape:cy="652.38964"
     inkscape:window-x="1200"
     inkscape:window-y="0"
     inkscape:window-maximized="1"
     inkscape:current-layer="svg9" />
  <style
     type="text/css"
     id="style2">
	.st0{fill:#0091E2;}
	.st1{fill:#FFFFFF;}
</style>
  <g
     id="Icon"
     transform="scale(0.50076315)">
    <circle
       class="st0"
       cx="512"
       cy="512"
       r="512"
       id="circle4" />
    <path
       class="st1"
       d="m 827.3,461.5 c -1.6,-1.3 -16.1,-12.2 -46.7,-12.2 -8.1,0 -16.2,0.6 -24.2,2.1 -5.9,-40.7 -39.5,-60.5 -41,-61.4 l -8.2,-4.8 -5.4,7.8 c -6.8,10.5 -11.7,22 -14.6,34.2 -5.5,23.2 -2.2,45 9.6,63.6 -14.2,7.9 -37.1,9.9 -41.7,10 H 277 c -9.9,0 -17.9,8 -17.9,17.9 -0.4,33.1 5.2,66 16.5,97.1 13,34.2 32.4,59.3 57.6,74.7 28.2,17.3 74.1,27.2 126.2,27.2 23.5,0.1 47,-2.1 70.1,-6.4 32.1,-5.9 63,-17.1 91.4,-33.2 23.4,-13.6 44.5,-30.8 62.4,-51.1 29.9,-33.9 47.8,-71.7 61.1,-105.2 h 5.3 c 32.8,0 53,-13.1 64.1,-24.1 7.4,-7 13.2,-15.5 16.9,-25 l 2.3,-6.9 z M 312,489.9 h 50.7 c 2.4,0 4.4,-2 4.4,-4.4 v -45.1 c 0,-2.4 -2,-4.4 -4.4,-4.5 H 312 c -2.4,0 -4.4,2 -4.4,4.4 v 45.2 c 0,2.5 2,4.4 4.4,4.4 m 69.9,0 h 50.7 c 2.4,0 4.4,-2 4.4,-4.4 v -45.1 c 0,-2.4 -2,-4.4 -4.4,-4.5 h -50.7 c -2.5,0 -4.5,2 -4.5,4.5 v 45.1 c 0,2.5 2,4.4 4.5,4.4 m 70.8,0.1 h 50.7 c 2.4,0 4.4,-2 4.4,-4.4 v -45.1 c 0,-2.4 -2,-4.4 -4.4,-4.5 h -50.7 c -2.4,0 -4.4,2 -4.4,4.4 v 45.2 c 0,2.4 2,4.3 4.4,4.4 m 70.1,0 h 50.7 c 2.4,0 4.4,-2 4.5,-4.4 v -45.1 c 0,-2.5 -2,-4.5 -4.5,-4.5 h -50.7 c -2.4,0 -4.4,2 -4.4,4.4 v 45.2 c 0,2.4 1.9,4.4 4.4,4.4 m -141,-65 h 50.7 c 2.4,0 4.4,-2 4.4,-4.5 v -45.1 c 0,-2.4 -2,-4.4 -4.4,-4.4 h -50.7 c -2.5,0 -4.4,2 -4.5,4.4 v 45.1 c 0.1,2.5 2.1,4.5 4.5,4.5 m 70.9,0 h 50.7 c 2.4,0 4.4,-2 4.4,-4.5 v -45.1 c 0,-2.4 -2,-4.4 -4.4,-4.4 h -50.7 c -2.4,0 -4.4,2 -4.4,4.4 v 45.1 c 0,2.5 2,4.5 4.4,4.5 m 70.1,0 h 50.7 c 2.5,0 4.4,-2 4.5,-4.5 v -45.1 c 0,-2.5 -2,-4.4 -4.5,-4.4 h -50.7 c -2.4,0 -4.4,2 -4.4,4.4 v 45.1 c 0,2.5 1.9,4.5 4.4,4.5 m 0,-64.9 h 50.7 c 2.5,0 4.5,-2 4.5,-4.5 v -45.2 c 0,-2.4 -2,-4.4 -4.5,-4.4 h -50.7 c -2.4,0 -4.4,2 -4.4,4.4 v 45.2 c 0,2.5 1.9,4.5 4.4,4.5 M 593.4,490 h 50.7 c 2.4,0 4.4,-2 4.4,-4.4 v -45.1 c 0,-2.5 -2,-4.4 -4.4,-4.5 h -50.7 c -2.4,0 -4.4,2 -4.4,4.4 v 45.2 c 0,2.4 2,4.4 4.4,4.4"
       id="path6" />
  </g>
</svg>
