<?xml version="1.0" encoding="UTF-8" standalone="no"?>
<svg
   xmlns:dc="http://purl.org/dc/elements/1.1/"
   xmlns:cc="http://creativecommons.org/ns#"
   xmlns:rdf="http://www.w3.org/1999/02/22-rdf-syntax-ns#"
   xmlns:svg="http://www.w3.org/2000/svg"
   xmlns="http://www.w3.org/2000/svg"
   xmlns:sodipodi="http://sodipodi.sourceforge.net/DTD/sodipodi-0.dtd"
   xmlns:inkscape="http://www.inkscape.org/namespaces/inkscape"
   width="33.916786mm"
   height="33.877014mm"
   viewBox="0 0 33.916786 33.877014"
   version="1.1"
   id="svg8"
   sodipodi:docname="osc.svg"
   inkscape:version="1.0.2 (e86c870879, 2021-01-15)">
  <defs
     id="defs2" />
  <sodipodi:namedview
     id="base"
     pagecolor="#ffffff"
     bordercolor="#666666"
     borderopacity="1.0"
     inkscape:pageopacity="1"
     inkscape:pageshadow="2"
     inkscape:zoom="1.979899"
     inkscape:cx="-71.987244"
     inkscape:cy="158.8858"
     inkscape:document-units="mm"
     inkscape:current-layer="layer1"
     inkscape:document-rotation="0"
     showgrid="false"
     inkscape:window-width="1920"
     inkscape:window-height="1163"
     inkscape:window-x="1920"
     inkscape:window-y="0"
     inkscape:window-maximized="1"
     fit-margin-top="0"
     fit-margin-left="0"
     fit-margin-right="0"
     fit-margin-bottom="0" />
  <metadata
     id="metadata5">
    <rdf:RDF>
      <cc:Work
         rdf:about="">
        <dc:format>image/svg+xml</dc:format>
        <dc:type
           rdf:resource="http://purl.org/dc/dcmitype/StillImage" />
        <dc:title></dc:title>
      </cc:Work>
    </rdf:RDF>
  </metadata>
  <g
     inkscape:label="Layer 1"
     inkscape:groupmode="layer"
     id="layer1"
     transform="translate(-91.23461,-117.07561)">
    <circle
       style="fill:#ffffff;fill-opacity:1;stroke:#ffffff;stroke-width:1"
       id="path902"
       cx="107.78385"
       cy="133.79268"
       r="14.851461" />
    <g
       id="g865"
       transform="translate(64.563046,-3.4271395)">
      <path
         style="fill:#fdfdfd;stroke-width:0.0846667"
         d="m 46.056176,154.25377 c 10.582827,-1.5714 17.091773,-12.3719 13.569554,-22.51639 -1.960008,-5.64511 -6.92378,-9.88943 -12.918793,-11.04635 -1.291949,-0.24932 -4.865075,-0.25142 -6.149162,-0.004 -4.790144,0.9244 -8.830186,3.69925 -11.385378,7.81988 -3.480113,5.61221 -3.314489,13.02948 0.411846,18.44409 2.879654,4.18433 6.763836,6.55458 12.091396,7.37853 0.622142,0.0962 3.564112,0.0451 4.380537,-0.0761 z m -9.268805,-7.52817 c -0.243798,-0.0688 -0.637656,-0.22363 -0.875242,-0.34402 -2.346674,-1.18915 -2.438154,-5.08153 -0.151569,-6.44912 1.222198,-0.73099 2.942369,-0.70673 4.134582,0.0583 2.061344,1.32277 2.123785,4.81017 0.110919,6.19506 -0.838319,0.57677 -2.249318,0.8134 -3.21869,0.53977 z m 1.851094,-1.10525 c 1.000426,-0.34088 1.471503,-1.14076 1.469575,-2.49531 -0.0025,-1.78153 -0.857673,-2.69191 -2.450037,-2.60834 -1.534648,0.0806 -2.355316,1.16432 -2.221781,2.93408 0.130316,1.72709 1.592814,2.71796 3.202243,2.16957 z m 4.688174,1.17985 c -0.09313,-0.0225 -0.426509,-0.10079 -0.740834,-0.17386 l -0.5715,-0.13287 v -0.92708 -0.92708 l 0.359834,0.026 c 0.359833,0.026 0.359833,0.026 0.433067,0.5137 0.08652,0.57612 0.113283,0.58927 1.228268,0.60361 0.83443,0.0107 1.19363,-0.12672 1.406398,-0.53817 0.388414,-0.75111 0.0077,-1.28197 -1.1839,-1.65064 -1.604818,-0.49653 -2.052486,-0.94861 -2.067892,-2.08829 -0.01109,-0.82022 0.365298,-1.43332 1.126421,-1.83483 0.560221,-0.29554 1.971433,-0.32213 2.789383,-0.0526 l 0.493246,0.16256 0.01475,0.91019 0.01475,0.91018 -0.349958,-2e-5 c -0.38128,-2e-5 -0.450832,-0.0991 -0.453219,-0.64582 -0.0016,-0.36269 -0.130128,-0.44206 -0.819733,-0.50615 -0.969003,-0.0901 -1.636756,0.28428 -1.636756,0.91756 0,0.34283 0.510634,0.83568 1.021805,0.98621 1.896107,0.55839 2.419514,1.06944 2.3465,2.29114 -0.0844,1.41213 -0.884575,2.12555 -2.436972,2.17274 -0.442383,0.0134 -0.880533,0.006 -0.973666,-0.0165 z m 6.479052,-0.0798 c -1.590082,-0.44699 -2.457386,-1.71444 -2.457386,-3.59112 0,-2.85686 2.386451,-4.40507 5.334,-3.46043 l 0.635,0.20351 0.02403,0.90668 0.02403,0.90668 h -0.374254 c -0.374254,0 -0.374254,0 -0.447364,-0.48431 -0.07118,-0.4715 -0.08206,-0.48699 -0.411777,-0.58616 -0.604286,-0.18173 -1.63414,-0.14077 -2.117283,0.0842 -0.906946,0.42235 -1.350352,1.2196 -1.349037,2.42559 0.0011,1.00263 0.20347,1.52254 0.802196,2.06084 0.771325,0.69349 2.150688,0.77997 2.864216,0.17958 0.336058,-0.28278 0.518993,-0.26257 0.862799,0.0953 l 0.291775,0.3037 -0.366808,0.32782 c -0.720436,0.64387 -2.236202,0.93115 -3.314139,0.62812 z m -11.404304,-9.3315 c 3.018811,-0.0123 7.93371,-0.0123 10.921999,0 2.988289,0.0123 0.518352,0.0224 -5.488747,0.0224 -6.0071,-1e-5 -8.452064,-0.0101 -5.433252,-0.0224 z m -4.303415,-2.12261 c -0.245791,-0.0582 -0.25303,-0.0738 -0.223978,-0.48218 0.04013,-0.56415 0.01995,-0.54906 0.734029,-0.54906 0.578309,0 0.649926,-0.0201 0.921222,-0.25828 0.430685,-0.37814 0.488705,-0.77475 0.457648,-3.12838 l -0.02625,-1.98967 -0.36703,-0.049 c -0.414234,-0.0553 -0.518807,-0.16873 -0.520674,-0.56485 l -0.0013,-0.27517 h 1.481666 1.481667 v 0.3283 c 0,0.37343 -0.103009,0.49112 -0.465667,0.53204 l -0.254,0.0287 -0.04632,2.32833 c -0.05074,2.55008 -0.09443,2.80262 -0.588556,3.40209 -0.467802,0.56752 -1.690814,0.88821 -2.582455,0.67715 z m 14.859,-0.006 c -0.762512,-0.17192 -1.377267,-0.56741 -1.762251,-1.13372 -0.445836,-0.65583 -0.470394,-0.80266 -0.519817,-3.10793 -0.04449,-2.07502 -0.05277,-2.15895 -0.215599,-2.18347 -0.543379,-0.0818 -0.550333,-0.088 -0.550333,-0.48618 v -0.37938 h 1.439333 1.439333 v 0.33367 c 0,0.37008 -0.06784,0.43851 -0.505123,0.50952 l -0.29921,0.0486 -0.02283,1.89793 c -0.02636,2.19139 0.03395,2.51274 0.560912,2.98882 0.873549,0.7892 2.218055,0.54431 2.6917,-0.49027 0.197475,-0.43134 0.201835,-0.49005 0.179634,-2.41927 l -0.02275,-1.97721 -0.326319,-0.053 c -0.375587,-0.061 -0.474903,-0.17842 -0.476718,-0.56362 l -0.0013,-0.27517 h 1.481667 1.481667 v 0.33569 c 0,0.36778 -0.152661,0.51098 -0.544768,0.51098 -0.217232,0 -0.217232,0 -0.217872,1.7145 -9.31e-4,2.48592 -0.142183,3.14244 -0.838696,3.89807 -0.629317,0.68273 -1.968196,1.05746 -2.970664,0.83144 z M 40.5915,134.85115 c 0.02563,-0.39714 0.02828,-0.40038 0.385639,-0.47065 l 0.359833,-0.0708 v -0.92379 -0.92378 l -0.93738,-1.58549 c -1.144366,-1.93558 -1.231821,-2.0603 -1.444618,-2.0603 -0.343991,0 -0.496669,-0.15708 -0.496669,-0.51098 v -0.33569 h 1.334111 1.334109 l -0.03034,0.38154 c -0.02544,0.31986 -0.06317,0.38977 -0.233444,0.43251 -0.111704,0.028 -0.203098,0.091 -0.203098,0.14002 0,0.0764 0.508389,1.05911 1.02986,1.99067 0.08551,0.15276 0.155473,0.33374 0.155473,0.40217 0,0.19988 0.166365,0.14325 0.253653,-0.0863 0.04407,-0.11591 0.328877,-0.66676 0.632904,-1.2241 0.640473,-1.17411 0.628505,-1.1241 0.298776,-1.24856 -0.225149,-0.085 -0.254,-0.13518 -0.254,-0.4419 v -0.34602 h 1.354667 1.354667 v 0.34048 c 0,0.35658 -0.07612,0.42618 -0.592667,0.54188 -0.169244,0.0379 -0.419423,0.39968 -1.248255,1.80502 l -1.036589,1.75762 -5.93e-4,0.94752 -5.93e-4,0.94752 0.359834,0.0708 c 0.357359,0.0703 0.360011,0.0735 0.385638,0.47065 l 0.02584,0.39989 H 41.97198 40.565702 l 0.02581,-0.39989 z"
         id="path881"
         sodipodi:nodetypes="csscsssccscssssssccsssscccsscssssscccsscssscssssscccssscsssscsssssssssssscsscccsccssssssssscccsscsssscsscccsssssssccccssscccscssssssscccssscccscccccs" />
      <path
         style="fill:#bbc5cf;stroke-width:0.0846667"
         d="m 31.59786,149.41154 -0.547888,-0.5715 0.5715,0.54789 c 0.530834,0.5089 0.610204,0.59511 0.547888,0.59511 -0.01299,0 -0.270162,-0.25717 -0.5715,-0.5715 z m 12.386109,-3.63792 c 0.128699,-0.0195 0.319199,-0.0189 0.423334,0.001 0.104135,0.0201 -0.0012,0.036 -0.233998,0.0354 -0.232833,-6.8e-4 -0.318034,-0.0171 -0.189336,-0.0365 z m 2.794729,-1.29391 c 0,-0.20955 0.01651,-0.29527 0.03669,-0.1905 0.02018,0.10478 0.02018,0.27623 0,0.381 -0.02018,0.10478 -0.03669,0.019 -0.03669,-0.1905 z m 0.512723,-1.31233 c 3.39e-4,-0.32597 0.01568,-0.44894 0.03401,-0.27328 0.01833,0.17566 0.01802,0.44236 -6.77e-4,0.59267 -0.0187,0.1503 -0.0337,0.007 -0.03332,-0.31939 z m 5.539051,-1.45675 c 0.104775,-0.0202 0.276225,-0.0202 0.381,0 0.104775,0.0202 0.01905,0.0367 -0.1905,0.0367 -0.20955,0 -0.295275,-0.0165 -0.1905,-0.0367 z m -6.213244,-0.99859 c 2.54e-4,-0.46566 0.01444,-0.64536 0.0316,-0.39932 0.01716,0.24603 0.01698,0.62703 -4.23e-4,0.84666 -0.01738,0.21963 -0.03142,0.0183 -0.0312,-0.44734 z m -2.16724,-0.27302 c 0.152176,-0.0188 0.380776,-0.0185 0.508,8.6e-4 0.127225,0.0193 0.0027,0.0347 -0.276683,0.0343 -0.2794,-5.1e-4 -0.383492,-0.0163 -0.231317,-0.0351 z m -6.012849,-3.1348 c 2.991908,-0.0123 7.887758,-0.0123 10.879666,0 2.991908,0.0123 0.543983,0.0224 -5.439833,0.0224 -5.983817,0 -8.431742,-0.0101 -5.439833,-0.0224 z m 2.076226,-2.39184 c 0,-0.20955 0.01651,-0.29528 0.03669,-0.1905 0.02018,0.10477 0.02018,0.27622 0,0.381 -0.02018,0.10477 -0.03669,0.019 -0.03669,-0.1905 z m 0.770612,-1.651 c 1.69e-4,-0.51224 0.01414,-0.71087 0.03099,-0.44141 0.01685,0.26946 0.0167,0.68856 -3.38e-4,0.93133 -0.01705,0.24278 -0.03083,0.0223 -0.03064,-0.48992 z m -5.346082,-2.21545 c -0.0148,-1.61039 -0.04544,-2.14121 -0.125423,-2.17348 -0.08289,-0.0334 -0.08232,-0.0441 0.0027,-0.0494 0.18123,-0.0112 0.191815,0.13371 0.166648,2.28092 l -0.0243,2.07273 z m 9.907577,-2.84339 0.02117,-0.27516 1.481667,-0.003 1.481667,-0.003 -1.455283,0.0263 c -1.455284,0.0263 -1.455284,0.0263 -1.502833,0.27835 -0.04625,0.24512 -0.04697,0.24449 -0.02638,-0.0231 z m -10.079616,-0.29581 c 0.405103,-0.0155 1.090903,-0.0156 1.524,-1.7e-4 0.433097,0.0154 0.101649,0.0281 -0.736551,0.0282 -0.8382,8e-5 -1.192552,-0.0125 -0.787449,-0.028 z m 3.348616,-10e-6 c 0.384175,-0.0157 1.012825,-0.0157 1.397,0 0.384175,0.0157 0.06985,0.0285 -0.6985,0.0285 -0.76835,0 -1.082675,-0.0128 -0.6985,-0.0285 z m 4.318,0 c 0.384175,-0.0157 1.012825,-0.0157 1.397,0 0.384175,0.0157 0.06985,0.0285 -0.6985,0.0285 -0.76835,0 -1.082675,-0.0128 -0.6985,-0.0285 z m 7.827384,10e-6 c 0.405103,-0.0155 1.090903,-0.0156 1.524,-1.7e-4 0.433097,0.0154 0.101649,0.0281 -0.736551,0.0282 -0.8382,8e-5 -1.192552,-0.0125 -0.787449,-0.028 z m -19.701884,-2.47702 c 0.229333,-0.23283 0.436018,-0.42333 0.459302,-0.42333 0.02328,0 -0.145303,0.1905 -0.374635,0.42333 -0.229332,0.23283 -0.436018,0.42333 -0.459301,0.42333 -0.02328,0 0.145302,-0.1905 0.374634,-0.42333 z m 24.000107,-0.0635 -0.462774,-0.48683 0.486833,0.46277 c 0.452284,0.42993 0.525618,0.51089 0.462775,0.51089 -0.01323,0 -0.232308,-0.21907 -0.486834,-0.48683 z"
         id="path879" />
      <path
         style="fill:#92a3b5;stroke-width:0.0846667"
         d="m 46.141805,141.62596 c 0.104775,-0.0202 0.276225,-0.0202 0.381,0 0.104775,0.0202 0.01905,0.0367 -0.1905,0.0367 -0.20955,0 -0.295275,-0.0165 -0.1905,-0.0367 z m 4.700164,-2.287 c 0.128699,-0.0195 0.319199,-0.0189 0.423333,0.001 0.104135,0.0201 -0.0012,0.036 -0.233997,0.0354 -0.232833,-6.8e-4 -0.318034,-0.0171 -0.189336,-0.0365 z m -13.99233,-1.86448 c 10.403666,-0.058 17.929447,-0.0584 17.893928,-9.4e-4 -0.02159,0.0349 -4.942382,0.0544 -10.935092,0.0432 -5.99271,-0.0112 -9.124186,-0.0302 -6.958836,-0.0422 z m 6.517244,-2.54487 c 0.04084,-0.39823 0.04084,-0.39823 0.06957,-0.0696 0.0158,0.18077 -0.0026,0.35997 -0.04084,0.39824 -0.03827,0.0383 -0.05119,-0.10964 -0.02873,-0.32866 z m -0.727893,-1.6259 c 0,-0.53552 0.01375,-0.75459 0.03055,-0.48683 0.0168,0.26776 0.0168,0.70591 0,0.97366 -0.0168,0.26776 -0.03055,0.0487 -0.03055,-0.48683 z m 3.983278,-2.62467 c 0,-1.00118 0.01225,-1.41075 0.02722,-0.91016 0.01497,0.50059 0.01497,1.31974 0,1.82033 -0.01497,0.50059 -0.02722,0.091 -0.02722,-0.91017 z m 1.354541,0.0423 c 7e-5,-0.9779 0.01239,-1.36636 0.02739,-0.86323 0.015,0.50312 0.01494,1.30322 -8.4e-5,1.778 -0.01506,0.47477 -0.02733,0.0631 -0.02726,-0.91477 z"
         id="path877" />
      <path
         style="fill:#7389a1;stroke-width:0.0846667"
         d="m 41.96131,145.53804 c 1.69e-4,-0.51223 0.01414,-0.71086 0.03099,-0.4414 0.01685,0.26945 0.0167,0.68855 -3.39e-4,0.93133 -0.01704,0.24277 -0.03083,0.0223 -0.03064,-0.48993 z m -0.768348,-10.26543 c 0.409746,-0.0155 1.057446,-0.0155 1.439334,1.7e-4 0.381889,0.0156 0.04664,0.0284 -0.744991,0.0283 -0.791633,-9e-5 -1.104087,-0.0129 -0.694343,-0.0285 z m -3.883577,-4.33957 c 0,-1.09431 0.01207,-1.54199 0.02681,-0.99483 0.01475,0.54716 0.01475,1.44251 0,1.98967 -0.01475,0.54716 -0.02681,0.0995 -0.02681,-0.99484 z"
         id="path875" />
      <path
         style="fill:#536d8b;stroke-width:0.0846667"
         d="m 41.531677,143.12504 c 0,-0.25611 0.01587,-0.36089 0.03527,-0.23283 0.0194,0.12806 0.0194,0.33761 0,0.46567 -0.0194,0.12806 -0.03527,0.0233 -0.03527,-0.23284 z m 11.85998,-2.286 c 0,-0.53551 0.01375,-0.75459 0.03055,-0.48683 0.0168,0.26776 0.0168,0.70591 0,0.97367 -0.0168,0.26776 -0.03055,0.0487 -0.03055,-0.48684 z m -2.508519,-0.31375 c 0.104775,-0.0202 0.276225,-0.0202 0.381,0 0.104775,0.0202 0.01905,0.0367 -0.1905,0.0367 -0.20955,0 -0.295275,-0.0165 -0.1905,-0.0367 z m -16.212502,-5.16567 c 0.128699,-0.0195 0.319199,-0.0189 0.423334,0.001 0.104135,0.0201 -0.0012,0.036 -0.233998,0.0354 -0.232833,-6.8e-4 -0.318034,-0.0171 -0.189336,-0.0365 z m 14.816667,0 c 0.128698,-0.0195 0.319198,-0.0189 0.423333,0.001 0.104135,0.0201 -0.0012,0.036 -0.233998,0.0354 -0.232833,-6.8e-4 -0.318034,-0.0171 -0.189335,-0.0365 z m 1.876415,-4.63824 c 6.4e-5,-1.02447 0.01229,-1.43193 0.02717,-0.90548 0.01488,0.52646 0.01483,1.36466 -8.5e-5,1.86267 -0.01494,0.49801 -0.02712,0.0673 -0.02705,-0.95719 z m -5.85502,-2.49767 c 0,-0.20955 0.01651,-0.29527 0.03669,-0.1905 0.02018,0.10478 0.02018,0.27623 0,0.381 -0.02018,0.10478 -0.03669,0.019 -0.03669,-0.1905 z m 3.302,0 c 0,-0.20955 0.01651,-0.29527 0.03669,-0.1905 0.02018,0.10478 0.02018,0.27623 0,0.381 -0.02018,0.10478 -0.03669,0.019 -0.03669,-0.1905 z"
         id="path873" />
      <path
         style="fill:#2b4c71;stroke-width:0.0846667"
         d="m 33.996343,143.12504 c 0,-0.25611 0.01587,-0.36089 0.03527,-0.23283 0.0194,0.12806 0.0194,0.33761 0,0.46567 -0.0194,0.12806 -0.03527,0.0233 -0.03527,-0.23284 z m 13.205689,0 c 0,-0.20955 0.01651,-0.29527 0.03669,-0.1905 0.02018,0.10478 0.02018,0.27623 0,0.381 -0.02018,0.10478 -0.03669,0.019 -0.03669,-0.1905 z m -0.499389,-2.413 c 1.69e-4,-0.51223 0.01414,-0.71086 0.03099,-0.4414 0.01685,0.26945 0.0167,0.68855 -3.39e-4,0.93133 -0.01704,0.24277 -0.03083,0.0223 -0.03064,-0.48993 z m -3.481838,-3.49222 c 0.547159,-0.0147 1.442509,-0.0147 1.989667,0 0.547158,0.0147 0.09948,0.0268 -0.994833,0.0268 -1.094317,0 -1.541992,-0.0121 -0.994834,-0.0268 z m 10.332382,-8.95378 c 6.77e-4,-0.23283 0.01708,-0.31803 0.03654,-0.18933 0.01946,0.1287 0.01894,0.3192 -0.0012,0.42333 -0.0201,0.10414 -0.03602,-0.001 -0.03538,-0.234 z m -18.543155,-0.0423 c 0,-0.20955 0.01651,-0.29527 0.03669,-0.1905 0.02018,0.10478 0.02018,0.27623 0,0.381 -0.02018,0.10478 -0.03669,0.019 -0.03669,-0.1905 z"
         id="path871" />
      <path
         style="fill:#002856;fill-opacity:1;stroke-width:0.0846667"
         d="m 31.639456,149.36921 -0.42015,-0.4445 0.4445,0.42015 c 0.413037,0.39041 0.483328,0.46885 0.42015,0.46885 -0.01339,0 -0.213417,-0.20002 -0.4445,-0.4445 z m 23.879182,0.0212 c 0.229333,-0.23284 0.436018,-0.42334 0.459302,-0.42334 0.02328,0 -0.145303,0.1905 -0.374635,0.42334 -0.229333,0.23283 -0.436018,0.42333 -0.459302,0.42333 -0.02328,0 0.145303,-0.1905 0.374635,-0.42333 z m -13.356166,-4.97042 c 0.104775,-0.0202 0.276225,-0.0202 0.381,0 0.104775,0.0202 0.01905,0.0367 -0.1905,0.0367 -0.20955,0 -0.295275,-0.0165 -0.1905,-0.0367 z m 1.977662,-0.57234 c -0.232065,-0.084 -0.255956,-0.11204 -0.1245,-0.14642 0.08947,-0.0234 0.213715,0.0121 0.2761,0.0789 0.06239,0.0668 0.185139,0.10267 0.272785,0.0797 0.08764,-0.0229 0.138002,-0.007 0.111906,0.0351 -0.05881,0.0952 -0.169436,0.0854 -0.536291,-0.0473 z m -2.451194,-0.77549 c -0.01616,-0.63003 -0.0953,-1.05939 -0.185048,-1.00393 -0.03655,0.0226 -0.04801,-0.0295 -0.02545,-0.11575 0.02256,-0.0863 -0.0096,-0.21013 -0.0714,-0.27528 -0.06182,-0.0651 -0.124567,-0.19466 -0.139429,-0.28779 -0.01486,-0.0931 -0.08882,-0.21696 -0.164349,-0.27517 -0.07553,-0.0582 -0.103713,-0.10583 -0.06263,-0.10583 0.04108,0 7.62e-4,-0.06 -0.08965,-0.13328 -0.09039,-0.0733 -0.107199,-0.10524 -0.03735,-0.071 0.06985,0.0343 -0.0741,-0.13323 -0.319885,-0.37223 -0.245787,-0.239 -0.464862,-0.43567 -0.486834,-0.43704 -0.02197,-10e-4 -0.117669,-0.0802 -0.212662,-0.1752 -0.09499,-0.095 -0.271728,-0.21036 -0.392742,-0.25637 -0.121016,-0.046 -0.196883,-0.1068 -0.168595,-0.13508 0.02829,-0.0283 0.144245,0.009 0.257682,0.0837 0.20625,0.13514 0.20625,0.13514 0.245504,-0.6447 0.02159,-0.42891 0.06723,-0.86354 0.101428,-0.96585 0.05865,-0.17547 0.03408,-0.18776 -0.433361,-0.21682 -0.272544,-0.017 1.828565,-0.0308 4.669131,-0.0308 2.840567,0 4.945592,0.0138 4.677833,0.0306 -0.46096,0.0289 -0.678197,0.19837 -0.381,0.29717 0.07327,0.0244 0.114668,0.31136 0.134548,0.93284 0.02228,0.69668 0.05354,0.88812 0.139602,0.8551 0.06099,-0.0234 0.136624,-9.2e-4 0.16808,0.05 0.03145,0.0509 0.02578,0.0871 -0.0126,0.0804 -0.18038,-0.0313 -0.285892,0.0169 -0.231042,0.10568 0.0339,0.0548 0.02355,0.075 -0.02358,0.0458 -0.09635,-0.0596 -0.730393,0.55667 -0.663562,0.64491 0.02423,0.032 0.01886,0.0393 -0.01194,0.0163 -0.06999,-0.0523 -0.484005,0.54611 -0.421231,0.60888 0.02521,0.0252 -0.0117,0.10336 -0.08201,0.17367 -0.07031,0.0703 -0.107792,0.18008 -0.08329,0.24392 0.0245,0.0639 0.0032,0.11608 -0.04734,0.11608 -0.05054,0 -0.07194,0.0763 -0.04757,0.16945 0.02437,0.0932 0.01221,0.14961 -0.02703,0.12537 -0.06436,-0.0398 -0.100137,0.13061 -0.195859,0.93285 -0.01992,0.16694 -0.03802,0.10891 -0.05281,-0.16933 -0.01238,-0.23284 -0.03993,-0.35666 -0.06123,-0.27517 -0.0213,0.0815 -0.114848,0.14817 -0.207892,0.14817 -0.09305,0 -0.227638,0.0585 -0.299095,0.12992 -0.0914,0.0914 -0.160955,0.10417 -0.234577,0.0431 -0.05756,-0.0478 -0.135831,-0.0586 -0.173936,-0.0241 -0.03811,0.0345 -0.04532,0.0207 -0.01603,-0.0307 0.06417,-0.11261 -0.339292,-0.31329 -0.468864,-0.23321 -0.05615,0.0347 -0.06676,0.0166 -0.02749,-0.0469 0.03935,-0.0637 0.01997,-0.0962 -0.05042,-0.0847 -0.06288,0.0103 -0.258882,-0.0456 -0.435557,-0.12403 -0.176674,-0.0785 -0.357649,-0.12018 -0.402166,-0.0927 -0.04452,0.0275 -0.08094,0.006 -0.08094,-0.0487 0,-0.0543 -0.05715,-0.0768 -0.127,-0.05 -0.06985,0.0268 -0.127,0.0163 -0.127,-0.0234 0,-0.0562 -0.267121,-0.16994 -0.404342,-0.17215 -0.01284,-1.7e-4 -0.117612,-0.10209 -0.232833,-0.22642 -0.204415,-0.22056 -0.273422,-0.5325 -0.145991,-0.65993 0.03493,-0.0349 0.0635,-0.10384 0.0635,-0.15314 0,-0.36132 1.136113,-0.58066 1.936742,-0.3739 0.226145,0.0584 0.240302,0.086 0.199606,0.38943 -0.02464,0.18374 -0.0033,0.36702 0.04869,0.41906 0.05087,0.0509 0.06432,0.0925 0.02989,0.0925 -0.03443,0 -0.01709,0.0487 0.03853,0.10827 0.06709,0.0718 0.232095,0.0932 0.490172,0.0635 l 0.389034,-0.0448 0.02416,-0.87042 c 0.01874,-0.67529 -0.005,-0.91202 -0.105833,-1.05601 -0.07149,-0.10207 -0.129991,-0.15755 -0.129991,-0.12328 0,0.0343 -0.137397,0.005 -0.305327,-0.0653 -0.16793,-0.0702 -0.336748,-0.10816 -0.37515,-0.0844 -0.0384,0.0237 -0.095,0.002 -0.125763,-0.0474 -0.03519,-0.0569 -0.403137,-0.085 -0.991803,-0.0756 -1.021819,0.0163 -1.582591,0.20622 -1.982067,0.67138 -0.09998,0.11641 -0.261901,0.30322 -0.359833,0.41512 -0.16672,0.1905 -0.2122,0.29997 -0.188083,0.45271 0.0055,0.0349 -0.01855,0.0635 -0.05347,0.0635 -0.03493,3e-5 -0.06799,0.26587 -0.07349,0.59075 -0.0055,0.32489 0.02265,0.57054 0.06253,0.54589 0.03988,-0.0246 0.04983,0.0143 0.0221,0.0866 -0.0278,0.0724 -0.0061,0.1314 0.0483,0.1314 0.0543,0 0.0716,0.0439 0.03846,0.0975 -0.03315,0.0536 0.01,0.14888 0.09585,0.21166 0.08586,0.0628 0.123144,0.11416 0.08284,0.11416 -0.0403,0 0.01511,0.0941 0.123125,0.20906 0.10802,0.11498 0.229905,0.18835 0.270856,0.16304 0.04095,-0.0253 0.06399,0.004 0.05119,0.0661 -0.01337,0.0644 0.04361,0.10648 0.133934,0.0989 0.100331,-0.008 0.127822,0.0161 0.07599,0.0679 -0.09576,0.0958 -1.199537,-0.33109 -1.220157,-0.47187 -0.0073,-0.0499 -0.03943,0.0997 -0.07137,0.33253 l -0.05806,0.42333 z m -2.355423,-1.74625 c -0.14034,-0.22465 -0.104295,-0.33568 0.06054,-0.1865 0.0885,0.0801 0.140519,0.17864 0.115585,0.21898 -0.06133,0.0992 -0.09808,0.0924 -0.176128,-0.0325 z m -6.428963,-4.02975 c 0.04413,-0.0714 1.194666,-0.10226 4.267582,-0.11449 2.313943,-0.009 3.788069,-0.0398 3.275836,-0.0679 -0.512233,-0.0282 -0.731308,-0.0587 -0.486833,-0.0679 0.459761,-0.0173 0.490837,-0.0492 0.448928,-0.46124 -0.01,-0.0981 0.04395,-0.14816 0.159583,-0.14816 0.0988,0 0.174655,-0.0552 0.174655,-0.127 0,-0.0699 0.03517,-0.127 0.07815,-0.127 0.09767,0 0.59918,-0.49561 0.59918,-0.59213 0,-0.0391 -0.04762,-0.0903 -0.105834,-0.1138 -0.05821,-0.0235 0.394916,-0.0457 1.006942,-0.0494 1.241205,-0.007 1.213411,0.007 1.218251,-0.62744 0.0025,-0.32173 0.01322,-0.33901 0.121892,-0.19555 0.102726,0.13562 0.213517,0.15308 0.801641,0.12638 0.508085,-0.0231 0.682441,-0.004 0.682441,0.0755 0,0.0652 0.114779,0.10646 0.296333,0.10646 0.162984,0 0.296333,0.0329 0.296333,0.0732 0,0.0402 0.17145,0.13864 0.381,0.21867 0.20955,0.08 0.381,0.18045 0.381,0.22317 0,0.0427 0.09525,0.0777 0.211667,0.0777 0.116417,0 0.213431,0.0476 0.215587,0.10584 0.0022,0.0582 0.152793,0.22013 0.334746,0.35983 0.181954,0.1397 0.332591,0.28431 0.334747,0.32135 0.0022,0.037 0.09917,0.1626 0.215587,0.27901 0.116416,0.11642 0.211666,0.265 0.211666,0.33018 0,0.0805 0.129034,0.12869 0.402167,0.15023 0.283201,0.0223 0.176758,0.0421 -0.359833,0.0668 -0.4191,0.0193 0.9144,0.0547 2.963333,0.0788 2.098914,0.0246 -1.013917,0.0499 -7.129976,0.0579 -5.970421,0.008 -10.900732,0.0423 -10.956248,0.0766 -0.06368,0.0393 -0.07864,0.0263 -0.04053,-0.0354 z m 14.319523,-1.25008 c -0.195762,-0.19576 -0.257621,-0.0854 -0.07299,0.13025 0.08446,0.0986 0.166453,0.14071 0.1822,0.0935 0.01575,-0.0472 -0.0334,-0.14792 -0.109207,-0.22373 z m -6.795379,-1.04901 c 0,-0.20955 0.01651,-0.29527 0.03669,-0.1905 0.02018,0.10478 0.02018,0.27623 0,0.381 -0.02018,0.10478 -0.03669,0.019 -0.03669,-0.1905 z m 0.762,-1.18533 c 0,-0.20955 0.01651,-0.29527 0.03669,-0.1905 0.02018,0.10478 0.02018,0.27623 0,0.381 -0.02018,0.10478 -0.03669,0.0191 -0.03669,-0.1905 z m 11.612237,-3.048 c 0,-1.00118 0.01225,-1.41076 0.02722,-0.91017 0.01497,0.5006 0.01497,1.31975 0,1.82034 -0.01497,0.50059 -0.02722,0.091 -0.02722,-0.91017 z m -11.621064,-2.47445 -0.01423,-0.40012 -1.418167,-0.0254 -1.418167,-0.0254 1.420824,-0.019 c 1.575331,-0.021 1.537527,-0.0349 1.477718,0.54362 -0.03222,0.31166 -0.03439,0.30833 -0.04798,-0.0737 z m 9.333129,-0.0861 0.0083,-0.36046 1.481667,-0.003 1.481666,-0.003 -1.455726,0.026 -1.455727,0.026 -0.03424,0.33736 c -0.03424,0.33737 -0.03424,0.33737 -0.02594,-0.0231 z m -14.702528,-0.38121 c 0.430742,-0.0154 1.135592,-0.0154 1.566333,0 0.430742,0.0154 0.07832,0.0279 -0.783166,0.0279 -0.861484,0 -1.213909,-0.0126 -0.783167,-0.0279 z m 7.581824,-2e-5 c 0.409745,-0.0156 1.057445,-0.0155 1.439333,1.7e-4 0.381889,0.0157 0.04664,0.0284 -0.74499,0.0283 -0.791634,-8e-5 -1.104088,-0.0129 -0.694343,-0.0285 z m 3.124227,9e-5 c 0.405103,-0.0155 1.090903,-0.0156 1.524,-1.7e-4 0.433097,0.0154 0.101649,0.0281 -0.736551,0.0282 -0.8382,8e-5 -1.192552,-0.0125 -0.787449,-0.028 z"
         id="path869" />
      <path
         style="fill:#002856;stroke-width:0.0846667"
         d="m 42.437639,154.29049 c -4.222676,-0.34035 -7.699075,-1.93623 -10.67296,-4.89954 -8.133942,-8.10501 -6.091964,-21.64603 4.06896,-26.98259 2.485356,-1.30532 4.769739,-1.84698 7.789333,-1.84698 2.589813,0 4.288046,0.3237 6.487083,1.23651 7.829698,3.25006 12.066078,11.98944 9.772067,20.15914 -0.819374,2.91805 -2.163561,5.19997 -4.358147,7.39848 -2.587014,2.59164 -5.515774,4.12424 -9.038972,4.73004 -0.634902,0.10917 -2.850789,0.31735 -3.069455,0.28838 -0.0489,-0.006 -0.488959,-0.044 -0.977909,-0.0834 z m -3.481908,-7.51496 c 1.95484,-0.60841 3.044027,-2.63034 2.515183,-4.66909 -0.06603,-0.25456 -0.106724,-0.47617 -0.09043,-0.49247 0.07817,-0.0782 0.296676,0.92819 0.308453,1.42061 0.0133,0.55613 0.0133,0.55613 0.07137,0.1328 0.03194,-0.23284 0.06405,-0.38247 0.07137,-0.33253 0.01064,0.0727 1.011138,0.54419 1.154699,0.54419 0.02056,0 -0.105839,-0.14287 -0.280882,-0.3175 -0.175045,-0.17462 -0.221194,-0.23939 -0.102556,-0.14393 0.441397,0.35517 0.524893,0.40285 1.041831,0.59491 0.290697,0.108 0.452342,0.20003 0.359209,0.2045 -0.103524,0.005 -0.03771,0.0555 0.169333,0.13013 0.427567,0.15404 0.589918,0.15443 0.254,6e-4 -0.1397,-0.064 -0.207461,-0.1194 -0.15058,-0.12319 0.257318,-0.0171 1.057309,0.41747 1.007489,0.5473 -0.02785,0.0726 -0.01572,0.11037 0.02697,0.084 0.116188,-0.0718 0.197612,0.2702 0.138872,0.58331 -0.09827,0.52383 -0.379452,0.67961 -1.286938,0.71298 -1.133716,0.0417 -1.182763,0.0221 -1.2441,-0.49576 -0.06765,-0.57115 -0.08786,-0.59201 -0.573725,-0.59201 h -0.421023 l 0.02385,0.9915 0.02385,0.9915 0.508,0.16019 c 0.649104,0.20469 2.014198,0.28378 2.556937,0.14814 1.270787,-0.31757 2.08494,-1.5862 1.794383,-2.79604 -0.06194,-0.25793 -0.114235,-0.51626 -0.1162,-0.57407 -0.002,-0.0578 -0.02611,-0.0959 -0.05365,-0.0847 -0.02755,0.0113 -0.198874,-0.11398 -0.380729,-0.27827 -0.181855,-0.1643 -0.455412,-0.3504 -0.607905,-0.41356 -0.152493,-0.0632 -0.26053,-0.13158 -0.240081,-0.15203 0.568541,0.2196 1.226487,0.27133 1.24823,-0.1933 0.01089,-0.23284 0.479751,-0.0261 0.545002,-0.21238 0.06525,-0.18627 0.09994,-0.23486 0.07709,-0.10799 -0.381236,2.1168 0.349682,3.81025 1.977393,4.58139 0.537346,0.25457 0.616281,0.26793 1.583321,0.26793 1.15522,0 1.813135,-0.22881 2.399779,-0.8346 l 0.284892,-0.2942 -0.234534,-0.30748 c -0.388726,-0.50965 -0.487866,-0.52466 -1.038133,-0.15716 -0.469228,0.31338 -0.503337,0.32223 -1.244451,0.32283 -1.150604,9.3e-4 -1.750035,-0.39968 -2.114464,-1.41313 -0.221759,-0.61669 -0.203663,-2.29282 0.02324,-2.15274 0.03257,0.0201 0.06477,-0.0559 0.07155,-0.16881 0.01426,-0.23764 0.184427,-0.47492 0.292633,-0.40805 0.04076,0.0252 0.05291,-0.009 0.02701,-0.0769 -0.06029,-0.15709 0.406219,-0.51771 0.89099,-0.68874 0.435546,-0.15367 1.184324,-0.16609 1.776248,-0.0295 0.408537,0.0943 0.429793,0.11287 0.429793,0.37549 0,0.56888 0.11781,0.71064 0.590571,0.71064 h 0.425429 v -0.96008 c 0,-1.10949 0.06859,-1.02393 -1.064227,-1.3275 -1.898057,-0.50864 -3.610585,0.0454 -4.577305,1.48092 -0.156824,0.23287 -0.285135,0.39267 -0.285135,0.35512 0,-0.15164 0.527819,-0.82082 0.949011,-1.20318 0.246395,-0.22368 0.38471,-0.38352 0.30737,-0.35521 -0.39196,0.11382 -0.09361,-1.05831 -0.303881,-1.779 -0.297197,-0.0988 -0.07996,-0.26825 0.381,-0.29717 0.267759,-0.0168 -1.837266,-0.0306 -4.677833,-0.0306 -2.840566,0 -4.941675,0.0139 -4.669131,0.0308 0.466744,0.029 0.546141,0.0505 0.489394,0.22567 -0.143107,0.44183 -0.227291,1.81051 -0.09593,1.90652 0.06985,0.0511 -0.03993,0.0129 -0.243966,-0.0848 -1.507015,-0.72171 -3.298378,-0.52079 -4.430875,0.49698 -1.871823,1.68219 -1.574877,4.97184 0.558998,6.19272 0.904082,0.51727 2.188833,0.66053 3.173935,0.35393 z m -1.809759,-1.18434 c -1.346243,-0.35589 -2.015932,-1.98238 -1.463644,-3.55477 0.530352,-1.50995 2.423131,-1.96343 3.6376,-0.87152 0.288652,0.25953 0.408472,0.42664 0.381061,0.53146 -0.02199,0.0841 0.0011,0.14467 0.05135,0.13462 0.156333,-0.0313 0.323903,0.8699 0.282621,1.5199 -0.06308,0.99311 -0.470324,1.7075 -1.18201,2.07347 -0.35828,0.18424 -1.294868,0.27578 -1.706982,0.16684 z m 5.3975,-1.17123 c -0.104775,-0.0202 -0.276225,-0.0202 -0.381,0 -0.104775,0.0202 -0.01905,0.0367 0.1905,0.0367 0.20955,0 0.295275,-0.0165 0.1905,-0.0367 z m 12.239409,-7.03108 c -0.02648,-0.13764 -0.293188,-0.15127 -3.752708,-0.19184 -7.433061,0.37454 -4.013137,-2.25239 -6.565642,-2.46674 -0.588124,0.0267 -0.698915,0.009 -0.801641,-0.12638 -0.108021,-0.1426 -0.120839,-0.11766 -0.136684,0.26597 l -0.01748,0.42334 -0.03336,-0.37934 c -0.04071,-0.46287 -0.115838,-0.56137 -0.480314,-0.62975 -0.283226,-0.0531 -0.283226,-0.0531 -0.297403,-0.94058 l -0.01418,-0.88745 0.992427,-1.67177 c 1.04382,-1.75835 1.138916,-1.88345 1.431804,-1.88345 0.300548,0 0.476729,-0.27206 0.446731,-0.68984 l -0.02646,-0.36849 -1.418167,-0.0232 -1.418166,-0.0232 v 0.41934 c 0,0.43025 0.14549,0.68542 0.390796,0.68542 0.08624,0 -0.06512,0.36223 -0.490728,1.17438 l -0.615429,1.17438 -0.615986,-1.13087 c -0.673814,-1.23703 -0.665922,-1.21789 -0.502109,-1.21789 0.236343,0 0.405612,-0.30871 0.378246,-0.68984 l -0.02646,-0.36849 -1.418167,-0.0232 -1.418166,-0.0232 v 0.46953 c 0,0.50052 0.04236,0.54845 0.592666,0.67044 0.168982,0.0375 0.416554,0.39292 1.227667,1.76269 l 1.016,1.71577 v 0.91223 0.91222 l -0.324112,0.0522 c -0.360053,0.0579 -0.480221,0.2465 -0.480221,0.75357 v 0.29082 l 1.545166,0.0174 c 1.545167,0.0174 1.545167,0.0174 0.402167,0.0673 -0.62865,0.0274 -1.095375,0.0577 -1.037167,0.0673 0.559843,0.13009 -0.390406,0.83343 -0.905734,1.09694 0.04072,0.40035 0.129376,0.52759 -0.327152,0.55953 -0.282671,0.0198 -0.227205,-0.0487 0.365057,-0.0261 0.512233,0.0196 -0.973154,0.0552 -3.300862,0.0792 -3.943414,0.0405 -4.234142,0.0536 -4.260708,0.19169 -0.02704,0.14049 0.539772,0.14816 10.948237,0.14816 10.408462,0 10.975273,-0.008 10.948242,-0.14816 z M 35.72124,135.29377 c 0.564842,-0.16774 1.135734,-0.67908 1.391164,-1.24604 0.192544,-0.42737 0.203643,-0.55318 0.244632,-2.77268 l 0.04294,-2.32499 0.261391,-0.0533 c 0.414918,-0.0847 0.458276,-0.14498 0.458276,-0.63759 v -0.46258 l -1.545167,0.0231 -1.545166,0.0231 -0.02646,0.36849 c -0.03286,0.45771 0.137438,0.67079 0.564606,0.70643 l 0.308518,0.0257 0.02284,1.90467 c 0.0355,2.96007 -0.106591,3.32152 -1.294898,3.29396 -0.766933,-0.0178 -0.782988,-0.005 -0.81756,0.64083 -0.0268,0.50079 -0.0247,0.50598 0.22695,0.56148 0.462374,0.10198 1.275334,0.0779 1.707934,-0.0506 z m 15.304397,-0.11616 c 0.94371,-0.41745 1.548469,-1.22215 1.731656,-2.30417 0.05189,-0.3065 0.09435,-1.32567 0.09435,-2.26483 0,-1.70757 0,-1.70757 0.240878,-1.70757 0.356036,0 0.537034,-0.24712 0.505246,-0.68984 l -0.02646,-0.36849 h -1.524 -1.524 l -0.02666,0.32397 c -0.03796,0.46124 0.16162,0.73436 0.536615,0.73436 h 0.294381 l -5.08e-4,1.88384 c -2.54e-4,1.03611 -0.03982,2.02552 -0.08792,2.1987 -0.373438,1.34463 -2.320182,1.53516 -2.981791,0.29183 -0.17837,-0.3352 -0.187729,-0.45135 -0.188584,-2.34066 l -8.97e-4,-1.98796 0.326319,-0.0533 c 0.404253,-0.0661 0.485783,-0.18534 0.457738,-0.66977 l -0.02206,-0.381 -1.507118,-0.0231 -1.507117,-0.0231 0.02545,0.48714 c 0.02705,0.51781 0.01195,0.50201 0.639284,0.6687 0.08084,0.0215 0.105833,0.49496 0.105833,2.00508 0,2.21352 0.05508,2.54477 0.535508,3.2205 0.364479,0.51265 0.868955,0.88243 1.479639,1.08458 0.658537,0.21798 1.832498,0.17691 2.424185,-0.0848 z"
         id="path867"
         sodipodi:nodetypes="csssssssccccsssssssssccscsssssscccsssccscccssssscssssssscsssscsssssccsscsccssccsssscssssssssscccscscscssscccssscssscccscsccccscscccsccsssssssccscccsccsssssscsssscccssccsssccscccssssscc" />
    </g>
  </g>
</svg>
