<?xml version="1.0" encoding="UTF-8" standalone="no"?>
<svg
   xmlns:dc="http://purl.org/dc/elements/1.1/"
   xmlns:cc="http://creativecommons.org/ns#"
   xmlns:rdf="http://www.w3.org/1999/02/22-rdf-syntax-ns#"
   xmlns:svg="http://www.w3.org/2000/svg"
   xmlns="http://www.w3.org/2000/svg"
   id="Layer_1"
   xml:space="preserve"
   version="1.1"><defs
   id="defs13" />
<path
   id="path3045"
   style="display:none"
   display="none"
   d="m69.172-16.891c-0.191-0.192-0.502-0.192-0.695 0l-56.838 56.764c-0.192 0.191-0.192 0.501 0 0.692l19.207 19.184c0.096 0.095 0.222 0.143 0.348 0.143 0.125 0 0.251-0.048 0.347-0.143l56.839-56.765c0.093-0.092 0.145-0.216 0.145-0.347s-0.052-0.255-0.145-0.347l-19.208-19.181z" />
<path
   id="path3047"
   style="display:none"
   display="none"
   d="m96.846-19.036-6.319-6.311c-1.814-1.811-4.226-2.809-6.792-2.809-2.564 0-4.977 0.998-6.79 2.809l-6.319 6.311c-0.093 0.092-0.145 0.216-0.145 0.347 0 0.13 0.052 0.254 0.145 0.346l19.207 19.182c0.092 0.092 0.218 0.144 0.348 0.144 0.131 0 0.255-0.052 0.346-0.144l6.319-6.311c1.814-1.812 2.813-4.22 2.813-6.783 0-2.561-0.999-4.969-2.813-6.781z" />
<path
   id="path3049"
   style="display:none"
   display="none"
   d="m10.358 41.811c-0.122-0.121-0.296-0.172-0.464-0.129-0.167 0.04-0.3 0.165-0.351 0.33l-9.18 29.195c-0.055 0.178-0.01 0.369 0.127 0.498 0.094 0.091 0.217 0.139 0.342 0.139 0.054 0 0.11-0.011 0.164-0.029l28.387-10.012c0.159-0.056 0.278-0.188 0.315-0.354 0.037-0.164-0.012-0.337-0.132-0.455l-19.208-19.183z" />
<path
   id="path3051"
   d="m 39.84404,80.993275 c -3.343665,-2.237314 -5.57595,-6.704785 -5.57595,-10.618891 0,-3.911724 1.673023,-7.541993 5.85439,-9.497853 H 39.84404 C 59.63712,49.141364 87.23845,33.494479 105.63933,22.596517 V 48.58323 c -7.24897,4.190788 -17.0063,8.942099 -41.54001,22.07499 l 0.27845,0.276683 c 13.10335,5.869968 28.15818,14.809683 41.26156,22.633128 v 26.265779 z"
   style="stroke-width:2.38251" />
<path
   id="path3053"
   d="m 266.67558,61.434666 c 3.34131,2.237314 5.57597,6.707173 5.57597,10.618894 0,3.911722 -1.67303,7.541991 -5.85677,9.497853 h 0.2808 C 246.88252,93.286577 219.2788,108.93347 200.88031,119.83143 V 93.844714 c 7.24897,-4.188404 17.0063,-8.939715 41.54001,-22.072606 l -0.27845,-0.276683 C 229.0409,65.625457 213.98367,56.68574 200.88031,48.862297 v -26.26578 z"
   style="stroke-width:2.38251" />
<path
   id="path3055"
   d="M 144.69479,123.3162 H 128.00977 L 161.54164,19.111745 h 16.96822 z"
   style="stroke-width:2.38251" />
<g
   aria-label="&lt;/&gt;"
   transform="scale(0.99887539,1.0011259)"
   id="text3057"
   style="font-size:177.343px;line-height:0%;font-family:Courier-Bold;letter-spacing:0px;word-spacing:0px;stroke-width:1.00007" />
<metadata
   id="metadata10"><rdf:RDF><cc:Work><dc:format>image/svg+xml</dc:format><dc:type
         rdf:resource="http://purl.org/dc/dcmitype/StillImage" /><cc:license
         rdf:resource="http://creativecommons.org/licenses/publicdomain/" /><dc:publisher><cc:Agent
           rdf:about="http://openclipart.org/"><dc:title>Openclipart</dc:title></cc:Agent></dc:publisher><dc:title></dc:title></cc:Work><cc:License
       rdf:about="http://creativecommons.org/licenses/publicdomain/"><cc:permits
         rdf:resource="http://creativecommons.org/ns#Reproduction" /><cc:permits
         rdf:resource="http://creativecommons.org/ns#Distribution" /><cc:permits
         rdf:resource="http://creativecommons.org/ns#DerivativeWorks" /></cc:License></rdf:RDF></metadata></svg>
