<?xml version="1.0" encoding="UTF-8" standalone="no"?>
<svg
   xmlns:dc="http://purl.org/dc/elements/1.1/"
   xmlns:cc="http://creativecommons.org/ns#"
   xmlns:rdf="http://www.w3.org/1999/02/22-rdf-syntax-ns#"
   xmlns:svg="http://www.w3.org/2000/svg"
   xmlns="http://www.w3.org/2000/svg"
   xmlns:sodipodi="http://sodipodi.sourceforge.net/DTD/sodipodi-0.dtd"
   xmlns:inkscape="http://www.inkscape.org/namespaces/inkscape"
   class="svg-icon"
   style="overflow:hidden;fill:currentColor"
   version="1.1"
   id="svg14"
   width="512"
   height="512"
   sodipodi:docname="team_icon2.svg"
   inkscape:version="1.0.2 (e86c870879, 2021-01-15)">
  <sodipodi:namedview
     pagecolor="#ffffff"
     bordercolor="#666666"
     borderopacity="1"
     objecttolerance="10"
     gridtolerance="10"
     guidetolerance="10"
     inkscape:pageopacity="0"
     inkscape:pageshadow="2"
     inkscape:window-width="1177"
     inkscape:window-height="1049"
     id="namedview11"
     showgrid="false"
     inkscape:zoom="0.24438477"
     inkscape:cx="585.08483"
     inkscape:cy="-239.15344"
     inkscape:window-x="0"
     inkscape:window-y="27"
     inkscape:window-maximized="0"
     inkscape:current-layer="svg14" />
  <metadata
     id="metadata20">
    <rdf:RDF>
      <cc:Work
         rdf:about="">
        <dc:format>image/svg+xml</dc:format>
        <dc:type
           rdf:resource="http://purl.org/dc/dcmitype/StillImage" />
        <dc:title />
      </cc:Work>
    </rdf:RDF>
  </metadata>
  <defs
     id="defs18" />
  <path
     d="m 339.60005,325.26056 c 0,-14.24319 -4.06948,-28.48637 -12.20844,-38.66008 -14.24319,-16.27792 -30.52112,-24.41689 -50.86853,-24.41689 -12.20844,0 -24.41688,0 -36.62533,0 -14.24318,0 -26.45163,4.06948 -38.66008,12.20845 -14.24318,10.1737 -22.38214,24.41689 -24.41689,40.69482 -2.03474,18.31266 0,38.66007 -2.03474,59.00748 2.03474,0 6.10423,2.03474 8.13896,2.03474 24.4169,6.10423 46.79904,12.20845 71.21594,12.20845 14.24318,0 30.52111,0 44.7643,-2.03475 12.20844,-2.03474 24.41689,-6.10422 36.62533,-10.1737 2.03474,0 2.03474,-2.03474 2.03474,-4.06948 2.03474,-16.27793 2.03474,-32.55586 2.03474,-46.79904 z"
     id="path2"
     style="fill:#e0e0e0;fill-opacity:1;stroke-width:0.317928" />
  <path
     d="m 207.3419,258.11411 c 4.06948,-2.03474 6.10422,-2.03474 10.1737,-4.06948 -12.20844,-12.20845 -18.31267,-24.41689 -18.31267,-40.69482 -14.24318,0 -28.48637,0 -42.72956,0 -8.13896,0 -16.27792,2.03474 -22.38214,4.06948 -22.38216,8.13897 -40.694827,30.52112 -40.694827,54.93801 0,16.27793 0,32.55585 0,50.86852 0,2.03474 0,2.03474 2.034741,4.06948 16.277926,4.06948 32.555856,8.13897 48.833786,10.1737 6.10422,0 14.24319,2.03474 20.34741,2.03474 0,-4.06947 0,-8.13896 0,-12.20844 0,-6.10422 0,-12.20844 2.03474,-18.31267 6.10422,-24.41689 20.34741,-40.69481 40.69482,-50.86852 z"
     id="path4"
     style="fill:#e0e0e0;fill-opacity:1;stroke-width:0.317928" />
  <path
     d="m 418.95495,276.42678 c 0,-8.13896 -2.03474,-18.31267 -6.10423,-26.45163 -12.20844,-24.41689 -30.52111,-36.62534 -56.97274,-36.62534 -38.66008,0 0,0 -38.66008,0 0,16.27793 -6.10422,30.52112 -18.31266,40.69482 2.03474,0 4.06948,2.03474 4.06948,2.03474 10.1737,4.06948 20.34741,10.1737 28.48637,18.31267 12.20845,14.24319 18.31267,30.52111 18.31267,48.83378 0,4.06948 0,10.1737 0,14.24318 10.1737,-2.03473 18.31266,-2.03473 28.48637,-4.06948 12.20845,-2.03474 26.45163,-6.10422 38.66008,-12.20844 2.03474,0 2.03474,-2.03474 2.03474,-4.06948 0,-10.17371 0,-26.45163 0,-40.69482 z"
     id="path6"
     style="fill:#e0e0e0;fill-opacity:1;stroke-width:0.317928" />
  <path
     d="m 258.21042,260.14885 c 26.45163,0 48.83378,-22.38215 46.79904,-48.83378 0,-26.45163 -22.38215,-46.79904 -46.79904,-46.79904 -26.45163,0 -48.83378,20.34741 -48.83378,46.79904 2.03474,26.45163 22.38215,48.83378 48.83378,48.83378 z"
     id="path8"
     style="fill:#e2e2e2;fill-opacity:1;stroke-width:0.317928" />
  <path
     d="m 317.2179,207.24559 c 6.10423,2.03474 12.20845,4.06948 20.34741,4.06948 26.45163,0 48.83378,-22.38215 46.79904,-48.83378 0,-26.45163 -22.38215,-46.79904 -46.79904,-46.79904 -26.45163,0 -48.83378,20.34741 -48.83378,46.79904 16.27793,8.13896 26.45163,24.41689 28.48637,44.7643 z"
     id="path10"
     style="fill:#e0e0e0;fill-opacity:1;stroke-width:0.317928" />
  <path
     d="m 174.78604,211.31507 c 8.13896,0 18.31267,-2.03474 24.41689,-6.10422 2.03474,-16.27793 10.17371,-30.52112 22.38215,-38.66008 0,0 0,-2.03474 0,-2.03474 0,-26.45163 -22.38215,-46.79904 -46.79904,-46.79904 -26.45163,0 -48.83378,20.34741 -48.83378,46.79904 0,24.41689 22.38215,46.79904 48.83378,46.79904 z"
     id="path12"
     style="fill:#e0e0e0;fill-opacity:1;stroke-width:0.317928" />
</svg>
