<?xml version="1.0" encoding="UTF-8" standalone="no"?>
<svg
   xmlns:dc="http://purl.org/dc/elements/1.1/"
   xmlns:cc="http://creativecommons.org/ns#"
   xmlns:rdf="http://www.w3.org/1999/02/22-rdf-syntax-ns#"
   xmlns:svg="http://www.w3.org/2000/svg"
   xmlns="http://www.w3.org/2000/svg"
   xmlns:sodipodi="http://sodipodi.sourceforge.net/DTD/sodipodi-0.dtd"
   xmlns:inkscape="http://www.inkscape.org/namespaces/inkscape"
   class="svg-icon"
   style="width: 1em; height: 1em;vertical-align: middle;fill: currentColor;overflow: hidden;"
   viewBox="0 0 1024 1024"
   version="1.1"
   id="svg14"
   sodipodi:docname="team_icon.svg"
   inkscape:version="1.0.2 (e86c870879, 2021-01-15)">
  <metadata
     id="metadata20">
    <rdf:RDF>
      <cc:Work
         rdf:about="">
        <dc:format>image/svg+xml</dc:format>
        <dc:type
           rdf:resource="http://purl.org/dc/dcmitype/StillImage" />
      </cc:Work>
    </rdf:RDF>
  </metadata>
  <defs
     id="defs18" />
  <sodipodi:namedview
     pagecolor="#ffffff"
     bordercolor="#666666"
     borderopacity="1"
     objecttolerance="10"
     gridtolerance="10"
     guidetolerance="10"
     inkscape:pageopacity="0"
     inkscape:pageshadow="2"
     inkscape:window-width="1131"
     inkscape:window-height="833"
     id="namedview16"
     showgrid="false"
     inkscape:zoom="0.23046875"
     inkscape:cx="-373.15254"
     inkscape:cy="512"
     inkscape:window-x="0"
     inkscape:window-y="27"
     inkscape:window-maximized="0"
     inkscape:current-layer="svg14"
     inkscape:document-rotation="0" />
  <path
     d="m 753.809,724.44633 c 0,-39.95155 -11.41473,-79.9031 -34.24419,-108.43992 -39.95154,-45.65891 -85.61046,-68.48837 -142.6841,-68.48837 -34.24418,0 -68.48836,0 -102.73255,0 -39.95154,0 -74.19573,11.41473 -108.43991,34.24419 -39.95155,28.53682 -62.781,68.48836 -68.48837,114.14728 -5.70736,51.36627 0,108.43991 -5.70736,165.51355 5.70736,0 17.12209,5.70736 22.82945,5.70736 68.48837,17.1221 131.26937,34.24419 199.75774,34.24419 39.95155,0 85.61046,0 125.56201,-5.70737 34.24418,-5.70736 68.48837,-17.12209 102.73255,-28.53682 5.70736,0 5.70736,-5.70736 5.70736,-11.41472 5.70737,-45.65891 5.70737,-91.31783 5.70737,-131.26937 z"
     id="path2"
     style="fill:#e0e0e0;fill-opacity:1;stroke-width:0.891776" />
  <path
     d="m 382.83034,536.10332 c 11.41473,-5.70737 17.12209,-5.70737 28.53682,-11.41473 -34.24418,-34.24419 -51.36627,-68.48837 -51.36627,-114.14728 -39.95155,0 -79.9031,0 -119.85465,0 -22.82945,0 -45.65891,5.70736 -62.781,11.41473 -62.78101,22.82945 -114.147284,85.61046 -114.147284,154.09882 0,45.65892 0,91.31783 0,142.6841 0,5.70737 0,5.70737 5.707363,11.41473 45.658911,11.41473 91.317821,22.82946 136.976741,28.53682 17.12209,0 39.95155,5.70736 57.07364,5.70736 0,-11.41472 0,-22.82945 0,-34.24418 0,-17.12209 0,-34.24418 5.70736,-51.36628 17.12209,-68.48836 57.07364,-114.14727 114.14728,-142.68409 z"
     id="path4"
     style="fill:#e0e0e0;fill-opacity:1;stroke-width:0.891776" />
  <path
     d="m 976.39619,587.46959 c 0,-22.82945 -5.70736,-51.36627 -17.12209,-74.19573 -34.24418,-68.48837 -85.61046,-102.73255 -159.80619,-102.73255 -108.43992,0 0,0 -108.43992,0 0,45.65891 -17.12209,85.61046 -51.36627,114.14728 5.70736,0 11.41473,5.70736 11.41473,5.70736 28.53682,11.41473 57.07364,28.53682 79.90309,51.36628 34.24419,39.95155 51.36628,85.61046 51.36628,136.97673 0,11.41473 0,28.53682 0,39.95155 28.53682,-5.70736 51.36627,-5.70736 79.90309,-11.41473 34.24419,-5.70736 74.19573,-17.12209 108.43992,-34.24418 5.70736,0 5.70736,-5.70737 5.70736,-11.41473 0,-28.53682 0,-74.19573 0,-114.14728 z"
     id="path6"
     style="fill:#e0e0e0;fill-opacity:1;stroke-width:0.891776" />
  <path
     d="m 525.51444,541.81068 c 74.19573,0 136.97673,-62.781 131.26937,-136.97673 0,-74.19574 -62.781,-131.26938 -131.26937,-131.26938 -74.19573,0 -136.97674,57.07364 -136.97674,131.26938 5.70737,74.19573 62.78101,136.97673 136.97674,136.97673 z"
     id="path8"
     style="fill:#e2e2e2;fill-opacity:1;stroke-width:0.891776" />
  <path
     d="m 691.02799,393.41922 c 17.1221,5.70736 34.24419,11.41473 57.07364,11.41473 74.19573,0 136.97674,-62.78101 131.26937,-136.97674 0,-74.19573 -62.781,-131.26937 -131.26937,-131.26937 -74.19573,0 -136.97673,57.07364 -136.97673,131.26937 45.65891,22.82946 74.19573,68.48837 79.90309,125.56201 z"
     id="path10"
     style="fill:#e0e0e0;fill-opacity:1;stroke-width:0.891776" />
  <path
     d="m 291.51252,404.83395 c 22.82945,0 51.36627,-5.70737 68.48837,-17.1221 5.70736,-45.65891 28.53681,-85.61046 62.781,-108.43991 0,0 0,-5.70737 0,-5.70737 0,-74.19573 -62.781,-131.26936 -131.26937,-131.26936 -74.19573,0 -136.97674,57.07363 -136.97674,131.26936 0,68.48837 62.78101,131.26938 136.97674,131.26938 z"
     id="path12"
     style="fill:#e0e0e0;fill-opacity:1;stroke-width:0.891776" />
</svg>
