<?xml version="1.0" encoding="UTF-8" standalone="no"?>
<svg
   xmlns:dc="http://purl.org/dc/elements/1.1/"
   xmlns:cc="http://creativecommons.org/ns#"
   xmlns:rdf="http://www.w3.org/1999/02/22-rdf-syntax-ns#"
   xmlns:svg="http://www.w3.org/2000/svg"
   xmlns="http://www.w3.org/2000/svg"
   xml:space="preserve"
   width="1850"
   height="3220"
   style="fill-rule: evenodd;"
   viewBox="0 0 1850 3237.41"
   id="svg2"
   version="1.1"><metadata
   id="metadata650"><rdf:RDF><cc:Work
       rdf:about=""><dc:format>image/svg+xml</dc:format><dc:type
         rdf:resource="http://purl.org/dc/dcmitype/StillImage" /><dc:title></dc:title></cc:Work></rdf:RDF></metadata>
 <defs
   id="defs4">
  <style
   type="text/css"
   id="style6">
   
    .str3 {stroke:#C7C7A2;stroke-width:0.797991}
    .str1 {stroke:#8C8C60;stroke-width:1.70998}
    .str2 {stroke:#636347;stroke-width:2.27997}
    .str0 {stroke:#1F1A17;stroke-width:3.98996}
    .fil1 {fill:none}
    .fil0 {fill:#EEEED4}
   
  </style>
 
   
   
   
   
   
   
   
  
   
   
   
   
   
   
   
   
   
   
   
   
   
   
   
   
   
   
   
   
   
  </defs>
 <g
   id="Layer_x0020_1"
   transform="translate(-14.0454, -0.00501389)">
  <metadata
   id="CorelCorpID_0Corel-Layer" />
  <g
   transform="translate(-8.282195,8.596128)"
   id="_91105008">
   <path
   id="_91167600"
   d="m 734.897,442.02 c 37.06503,24.27107 109.3931,-42.78933 94.83193,-38.50268 32.65085,31.71874 86.7699,36.99899 110.77407,79.11768 37.18651,-12.22062 10.3346,-73.40674 58.74582,-93.34091 53.82918,10.35783 29.13468,-67.69678 33.84128,-103.24377 3.4047,-43.55102 22.1267,-89.51687 21.7031,-129.16601 19.372,-32.43423 51.1901,-62.422263 67.541,-95.190765 41.2079,-13.505565 84.082,20.636217 114.1258,-28.692645 32.7018,-42.5417697 56.918,6.245493 88.6325,30.158566 12.0692,37.820784 62.8752,46.262514 97.7275,67.292534 22.1492,44.20746 40.6121,87.89136 -6.8146,122.21715 -46.2896,29.29193 16.3792,89.14111 -31.7752,109.95076 -70.1566,37.61979 41.0152,13.16498 4.5617,77.00226 -18.8811,39.5306 -41.1101,75.58381 -16.4592,119.91679 -7.1068,58.19265 56.6794,53.34438 86.6666,80.95018 23.7493,47.03803 39.3903,100.79443 90.6307,125.05386 -0.3412,76.05238 -59.7882,134.7219 -87.6605,202.67748 -36.8524,39.25152 -9.9484,79.93872 15.6923,116.20482 38.2366,55.477 49.7364,123.953 87.5963,179.073 16.7254,42.6887 30.5338,86.089 33.5119,132.1317 -60.5433,-0.7067 -35.4481,49.4917 -47.2983,90.6698 -30.8084,55.6972 27.9898,41.2172 21.2283,86.3002 -36.6114,19.0936 -41.7655,83.5654 -2.898,102.7783 53.3602,-1.7023 39.9447,54.092 30.6461,88.9098 -1.0171,53.5718 68.0232,55.9674 74.5997,101.4018 10.7105,42.6572 -15.0838,93.7525 -40.4609,125.8613 -46.592,26.0687 43.738,61.3277 51.6271,97.2578 37.8921,17.0869 79.0236,40.111 105.039,71.4288 -2.0279,46.4019 71.2088,57.3897 52.4602,106.5207 -22.4328,63.006 -33.6156,137.4981 -79.4347,186.6204 -47.857,32.7453 -57.4982,103.2777 -102.4885,141.4811 -11.1831,43.1653 -51.9012,68.3066 -68.5147,108.617 -41.3353,28.324 -41.9338,96.116 -93.7424,116.8237 -47.8285,9.6822 -37.5268,71.0697 -77.3562,79.6543 -37.1084,29.0536 -54.8368,72.1688 -94.3267,100.495 -18.9356,16.8587 -37.0969,38.4812 -72.51,45.6668 -13.2092,-13.7116 -84.5533,-43.3864 -74.22,6.2632 -23.5851,13.3235 -52.5184,-18.1802 -82.737,8.0497 -31.7627,14.829 -32.8505,26.8712 -62.2696,-8.1317 -23.1421,-10.4032 26.705,48.9221 -12.3934,53.542 -3.1721,-32.8758 -34.51025,45.5462 -49.585,-21.88 -21.44872,18.0701 -114.29158,54.6685 -87.215,42.92 8.82945,41.386 -64.39456,-8.4808 -74.64812,27.3727 -32.90741,50.9051 -53.0189,-17.5795 -43.12659,9.469 -25.1524,3.2561 -72.84204,17.9007 -107.44929,25.9883 -3.86662,34.1645 -67.49429,-12.6168 -73.82875,35.7956 -47.76995,12.8881 -70.23186,1.1189 -14.74225,-22.8056 22.50678,-50.0547 -57.25568,27.9485 -30.76255,-29.8591 51.71407,-4.1872 -32.80521,-65.7364 16.60812,-89.4245 26.41796,-53.0247 -48.08538,38.7703 -70.92726,3.2079 -0.0679,-33.6357 0.7848,-39.342 -51.48005,-32.9194 -28.92819,-23.6355 -14.7011,-33.9362 -38.68435,-52.1022 -71.38898,26.1328 29.22114,-54.6941 -34.19552,-23.3778 -16.66738,81.511 -61.05387,-113.1538 -46.30054,-52.238 -8.30038,-38.4719 -5.55434,-98.88 -8.7358,-77.3374 46.25623,31.0235 -5.72762,-27.8924 22.38364,-29.0749 8.77582,-41.0098 30.86735,-52.1189 27.29937,-93.181 -2.9217,-37.6219 34.17921,-49.7208 15.18394,-43.6736 -21.22613,-34.8696 18.90532,-8.4716 -2.453,-70.21 -12.11009,-24.3384 -3.80592,-53.8394 -31.49613,-85.6733 4.36913,-37.4204 39.03566,-65.8401 9.66813,-89.9167 15.79637,-23.2189 -41.24619,-47.9173 -6.04349,-92.1596 -14.52256,5.7082 -2.24168,-112.2019 2.73719,-65.9643 13.55249,-33.0048 53.77276,-18.5426 47.132,-66.9866 -14.83019,-26.7191 32.54012,-1.6108 17.5983,-48.3195 -6.37858,-39.041 48.80408,-18.7861 84.723,-13.67 47.16073,-10.4594 26.65075,-45.1318 20.625,-75.37 21.44431,-23.5598 31.64279,-30.5566 57.75567,-63.6717 14.45796,-28.7788 23.46189,-67.5729 60.87276,-57.3717 63.39741,27.1419 36.13098,-65.4469 69.58909,-46.0808 16.58426,-5.5085 23.40045,-72.5793 53.25148,-65.2658 8.0344,-35.0516 42.53474,-64.0899 68.561,-88.19 7.90121,-42.0959 30.66424,-72.2929 56.82266,-97.3265 32.04546,-29.7288 89.68035,-18.4008 84.39733,2.0864 -61.01143,-62.179 40.35771,-3.6857 3.45154,-56.6478 -29.64416,-27.7124 -13.69096,-65.4898 -13.45969,-100.9548 22.41304,-38.5179 -61.88685,-88.9618 -39.15584,-78.5373 -29.73048,-20.8457 -60.87293,2.5019 -56.286,-43.75 -43.99584,-20.5488 -52.94455,0.7936 -60.67662,-62.7519 -7.95882,-44.0842 -40.3989,-72.2369 -46.50947,-116.7893 -9.14655,-40.349 24.0154,-68.2392 29.8071,-103.3961 11.51748,-45.8393 22.3444,-76.7917 -9.84958,-121.90714 -36.08451,-40.70447 6.99276,-132.9934 1.35857,-104.51456 -7.05829,-22.57503 -47.69211,-46.509 -17.49976,-95.5682 -21.6651,-43.05822 37.65172,-83.88174 -1.27293,-110.03654 -26.82784,-33.03815 -24.59848,-63.09732 -54.60665,-99.12671 -23.62935,-40.0125 -85.66189,-32.8862 -106.5313,-64.90295 -19.9364,-35.14927 -60.96087,-44.65202 -75.30701,-86.0015 -23.1734,-39.25117 -42.79333,-54.02118 -63.96049,-96.51404 -14.61108,-65.17306 82.6245,28.41038 46.33405,-45.55402 4.36568,-48.67518 87.31149,-48.08442 95.73695,1.53374 17.47021,50.3965 64.64029,94.78698 55.18614,150.62822 29.11624,-20.08904 45.63727,29.62132 80.883,18.181 z"
   style="fill:#eeeed4;stroke:#1f1a17;stroke-width:3.98995996" />
   <path
   id="_91167528"
   d="m 892.558,1634.74 c -60.67099,-5.1952 -11.60807,-71.4774 25.525,-36.23 33.49799,22.6169 -44.58287,-14.9099 -25.525,36.23 z"
   style="fill:#eeeed4;stroke:#1f1a17;stroke-width:3.98995996" />
   <path
   id="_91167456"
   d="m 951.187,1592.83 c -29.79814,1.5684 -0.41278,-26.6452 0,0 z"
   style="fill:#eeeed4;stroke:#1f1a17;stroke-width:3.98995996" />
   <path
   id="_91167384"
   d="m 720.706,1869.96 c -27.8863,-1.3938 20.48006,-27.8803 0,0 z"
   style="fill:#eeeed4;stroke:#1f1a17;stroke-width:3.98995996" />
   <path
   id="_91167312"
   d="m 570.525,1995.92 c -18.31574,-33.6947 24.72593,-30.7137 0,0 z"
   style="fill:#eeeed4;stroke:#1f1a17;stroke-width:3.98995996" />
   <path
   id="_91167240"
   d="m 452.897,2090.62 c -16.84964,-26.6091 26.59814,-5.2489 0,0 z"
   style="fill:#eeeed4;stroke:#1f1a17;stroke-width:3.98995996" />
   <path
   id="_91167168"
   d="m 469.825,2119.28 c 16.65523,-37.4567 41.69302,-0.3866 0,0 z"
   style="fill:#eeeed4;stroke:#1f1a17;stroke-width:3.98995996" />
   <path
   id="_91167096"
   d="m 478.94,2137.53 c -4.33474,-46.0865 74.72946,18.6438 0,0 z"
   style="fill:#eeeed4;stroke:#1f1a17;stroke-width:3.98995996" />
   <path
   id="_91167024"
   d="m 426.42,2139.27 c 5.85747,-43.0334 34.03556,2.088 0,0 z"
   style="fill:#eeeed4;stroke:#1f1a17;stroke-width:3.98995996" />
   <path
   id="_91166952"
   d="m 368.691,2091.92 c 20.97194,13.0032 -24.74959,31.7023 0,0 z"
   style="fill:#eeeed4;stroke:#1f1a17;stroke-width:3.98995996" />
   <path
   id="_91166880"
   d="m 385.185,2100.61 c 40.67913,13.319 -37.18346,29.4365 0,0 z"
   style="fill:#eeeed4;stroke:#1f1a17;stroke-width:3.98995996" />
   <path
   id="_91166808"
   d="m 363.049,2158.81 c -37.79877,-36.3176 12.61458,-52.6676 15.05885,-17.9297 42.39703,-26.0683 11.12435,48.2348 -15.05885,17.9297 z"
   style="fill:#eeeed4;stroke:#1f1a17;stroke-width:3.98995996" />
   <path
   id="_91166736"
   d="m 305.32,2207.46 c 26.53109,7.9671 -23.99035,32.8304 0,0 z"
   style="fill:#eeeed4;stroke:#1f1a17;stroke-width:3.98995996" />
   <path
   id="_91166664"
   d="m 346.555,2225.7 c -1.3362,-48.2698 29.88086,20.0904 0,0 z"
   style="fill:#eeeed4;stroke:#1f1a17;stroke-width:3.98995996" />
   <path
   id="_91166592"
   d="m 340.478,2259.15 c 44.78235,-16.7289 -24.84464,40.3017 0,0 z"
   style="fill:#eeeed4;stroke:#1f1a17;stroke-width:3.98995996" />
   <path
   id="_91166520"
   d="m 326.588,2290.86 c 22.31901,2.4755 -3.53696,35.0549 0,0 z"
   style="fill:#eeeed4;stroke:#1f1a17;stroke-width:3.98995996" />
   <path
   id="_91166448"
   d="m 324.809,2346.49 c 23.15438,15.9112 -18.97766,24.4896 0,0 z"
   style="fill:#eeeed4;stroke:#1f1a17;stroke-width:3.98995996" />
   <path
   id="_91166376"
   d="m 325.245,2779.5 c 20.53825,-30.7278 8.60042,41.1316 0,0 z"
   style="fill:#eeeed4;stroke:#1f1a17;stroke-width:3.98995996" />
   <path
   id="_91166304"
   d="m 272.766,3011.9 c -37.38484,-16.5271 23.15112,-68.0315 0,0 z"
   style="fill:#eeeed4;stroke:#1f1a17;stroke-width:3.98995996" />
   <path
   id="_91166232"
   d="m 247.784,2994.34 c 28.83343,44.4029 -33.18666,23.31 0,0 z"
   style="fill:#eeeed4;stroke:#1f1a17;stroke-width:3.98995996" />
   <path
   id="_91166160"
   d="m 264.712,3016.49 c 29.65279,39.7407 -37.45792,26.512 0,0 z"
   style="fill:#eeeed4;stroke:#1f1a17;stroke-width:3.98995996" />
   <path
   id="_91166088"
   d="m 240.646,3045.78 c -28.37708,12.918 -2.10845,-40.4927 0,0 z"
   style="fill:#eeeed4;stroke:#1f1a17;stroke-width:3.98995996" />
   <path
   id="_91166016"
   d="m 207.225,3045.35 c 10.18496,-38.9554 22.44882,15.9926 0,0 z"
   style="fill:#eeeed4;stroke:#1f1a17;stroke-width:3.98995996" />
   <path
   id="_91165944"
   d="m 211.131,3074.02 c -9.93823,-46.6943 38.96052,10.0459 0,0 z"
   style="fill:#eeeed4;stroke:#1f1a17;stroke-width:3.98995996" />
   <path
   id="_91165872"
   d="m 195.939,3087.92 c -13.66342,-34.098 28.30185,-0.5784 0,0 z"
   style="fill:#eeeed4;stroke:#1f1a17;stroke-width:3.98995996" />
   <path
   id="_91165800"
   d="m 200.289,3115.16 c -39.55546,-5.5335 -3.75323,-57.3026 0,0 z"
   style="fill:#eeeed4;stroke:#1f1a17;stroke-width:3.98995996" />
   <path
   id="_91165728"
   d="m 163.395,3039.15 c -46.8149,6.8625 -10.58819,-30.1283 0,0 z"
   style="fill:#eeeed4;stroke:#1f1a17;stroke-width:3.98995996" />
   <path
   id="_91165656"
   d="m 162.305,3068.36 c -25.17296,45.8111 -13.6393,-70.6727 0,0 z"
   style="fill:#eeeed4;stroke:#1f1a17;stroke-width:3.98995996" />
   <path
   id="_91165584"
   d="m 151.655,3146.96 c -60.407152,-20.8342 81.82747,-29.3594 0,0 z"
   style="fill:#eeeed4;stroke:#1f1a17;stroke-width:3.98995996" />
   <path
   id="_91165512"
   d="m 166.183,3106.84 c 34.18987,8.5818 -14.11245,19.431 0,0 z"
   style="fill:#eeeed4;stroke:#1f1a17;stroke-width:3.98995996" />
   <path
   id="_91165440"
   d="m 123.462,3114.73 c -5.54425,-53.435 30.94301,-6.8743 0,0 z"
   style="fill:#eeeed4;stroke:#1f1a17;stroke-width:3.98995996" />
   <path
   id="_91165368"
   d="m 98.813,3085.09 c -25.125041,30.2762 54.95143,29.1072 15.044,64.13 -11.24827,-30.7311 -49.767979,-27.7444 -62.353503,-58.4072 -17.252874,-11.1264 -64.540588,-20.7031 -23.511466,-52.6798 33.005088,-23.152 52.900664,32.4406 42.082169,-13.323 -33.315628,-30.2283 56.9773,-18.1136 57.2598,18.97 46.94851,73.2685 -66.133645,-1.6082 -28.521,41.31 z"
   style="fill:#eeeed4;stroke:#1f1a17;stroke-width:3.98995996" />
   <path
   id="_91165296"
   d="m 240.529,3169.96 c -36.74048,42.0618 -26.3499,-36.9892 0,0 z"
   style="fill:#eeeed4;stroke:#1f1a17;stroke-width:3.98995996" />
   <path
   id="_91165224"
   d="m 925.18,3112.1 c 44.41777,-0.6437 -17.67247,24.1297 0,0 z"
   style="fill:#eeeed4;stroke:#1f1a17;stroke-width:3.98995996" />
   <path
   id="_91165152"
   d="m 956.431,3114.27 c 13.2844,32.1372 -22.09649,14.5029 0,0 z"
   style="fill:#eeeed4;stroke:#1f1a17;stroke-width:3.98995996" />
   <path
   id="_91165080"
   d="m 970.755,3094.72 c 23.97905,41.8139 -20.34151,45.7384 0,0 z"
   style="fill:#eeeed4;stroke:#1f1a17;stroke-width:3.98995996" />
   <path
   id="_91165008"
   d="m 1018.4,3119.64 c -1.9036,34.3626 -34.48452,-14.1226 0,0 z"
   style="fill:#eeeed4;stroke:#1f1a17;stroke-width:3.98995996" />
   <path
   id="_91164936"
   d="m 1038.46,3103.96 c 26.7263,-21.2762 15.4888,22.5589 0,0 z"
   style="fill:#eeeed4;stroke:#1f1a17;stroke-width:3.98995996" />
   <path
   id="_91164864"
   d="m 1056.69,3091.36 c 7.4387,-30.2049 25.8685,28.0903 0,0 z"
   style="fill:#eeeed4;stroke:#1f1a17;stroke-width:3.98995996" />
   <path
   id="_91164792"
   d="m 1113.02,3078.37 c -5.1275,27.4812 -43.805,-26.2142 0,0 z"
   style="fill:#eeeed4;stroke:#1f1a17;stroke-width:3.98995996" />
   <path
   id="_91164720"
   d="m 1157.3,3082.72 c -17.4447,21.1585 -14.4345,-30.1187 0,0 z"
   style="fill:#eeeed4;stroke:#1f1a17;stroke-width:3.98995996" />
   <path
   id="_91107264"
   d="m 1130.82,3055.78 c 7.6981,33.4733 -45.8786,8.2814 0,0 z"
   style="fill:#eeeed4;stroke:#1f1a17;stroke-width:3.98995996" />
   <path
   id="_91107192"
   d="m 1214.16,3108.49 c -34.9999,-6.3722 22.7839,-21.2228 0,0 z"
   style="fill:#eeeed4;stroke:#1f1a17;stroke-width:3.98995996" />
   <path
   id="_91107120"
   d="m 1197.23,3075.77 c -28.5259,-10.677 9.1529,-47.3859 0,0 z"
   style="fill:#eeeed4;stroke:#1f1a17;stroke-width:3.98995996" />
   <path
   id="_91107048"
   d="m 344.384,2648.78 c 13.30547,-54.3559 36.08628,38.3234 0,0 z"
   style="fill:#eeeed4;stroke:#1f1a17;stroke-width:3.98995996" />
   <path
   id="_91106976"
   d="m 295.529,2971.31 c 36.4152,37.7165 -14.61214,40.5229 0,0 z"
   style="fill:#eeeed4;stroke:#1f1a17;stroke-width:3.98995996" />
   <path
   id="_91106904"
   d="m 331.797,3006.69 c -51.5814,-29.2355 10.66615,-45.8306 0,0 z"
   style="fill:#eeeed4;stroke:#1f1a17;stroke-width:3.98995996" />
   <path
   id="_91106832"
   d="m 303.342,2946.12 c 37.49087,37.2125 -38.14232,26.9044 0,0 z"
   style="fill:#eeeed4;stroke:#1f1a17;stroke-width:3.98995996" />
   <path
   id="_91106760"
   d="m 331.857,3205.19 c 33.89135,1.7634 -32.36092,28.441 -0.30774,0.3287 z"
   style="fill:#eeeed4;stroke:#1f1a17;stroke-width:3.98995996" />
   <path
   id="_91106688"
   d="m 353.509,3179.88 c 24.72529,-45.1909 16.03428,46.2598 0,0 z"
   style="fill:#eeeed4;stroke:#1f1a17;stroke-width:3.98995996" />
   <path
   id="_91106616"
   d="m 287.09,3032.75 c -25.71863,-15.481 17.00356,-29.5912 0,0 z"
   style="fill:#eeeed4;stroke:#1f1a17;stroke-width:3.98995996" />
   <path
   id="_91106544"
   d="m 302.474,3033.43 c 20.77477,24.2974 -28.10245,6.3511 0,0 z"
   style="fill:#eeeed4;stroke:#1f1a17;stroke-width:3.98995996" />
   <path
   id="_91106472"
   d="m 319.402,3019.96 c 11.25054,36.0083 -27.13005,7.1579 0,0 z"
   style="fill:#eeeed4;stroke:#1f1a17;stroke-width:3.98995996" />
   <path
   id="_91106400"
   d="m 339.176,3031.45 c 9.56951,-43.3807 31.6286,4.5621 0,0 z"
   style="fill:#eeeed4;stroke:#1f1a17;stroke-width:3.98995996" />
   <path
   id="_91106328"
   d="m 321.801,3090.79 c -36.91598,36.2674 -34.31882,-39.7208 0,0 z"
   style="fill:#eeeed4;stroke:#1f1a17;stroke-width:3.98995996" />
   <path
   id="_91106256"
   d="m 352.133,3102.75 c -28.3775,75.5414 -37.89527,-29.9903 0,0 z"
   style="fill:#eeeed4;stroke:#1f1a17;stroke-width:3.98995996" />
   <path
   id="_91106184"
   d="m 304.886,3077.06 c 22.71457,-38.6293 24.62435,15.9348 0,0 z"
   style="fill:#eeeed4;stroke:#1f1a17;stroke-width:3.98995996" />
   <path
   id="_91106112"
   d="m 338.742,3093.56 c -29.33355,-48.6308 33.6743,-16.6617 0,0 z"
   style="fill:#eeeed4;stroke:#1f1a17;stroke-width:3.98995996" />
   <path
   id="_91106040"
   d="m 383.075,3010.35 c 41.46074,5.7144 19.33508,93.6191 11.227,42.12 -12.24713,-7.5262 -24.95954,-31.0812 -11.227,-42.12 z"
   style="fill:#eeeed4;stroke:#1f1a17;stroke-width:3.98995996" />
   <path
   id="_91105968"
   d="m 368.071,3124.66 c -36.42554,-39.269 65.71059,-43.8633 0,0 z"
   style="fill:#eeeed4;stroke:#1f1a17;stroke-width:3.98995996" />
   <path
   id="_91105896"
   d="m 355.915,3044.14 c 37.89351,-15.1666 6.96836,40.2121 0,0 z"
   style="fill:#eeeed4;stroke:#1f1a17;stroke-width:3.98995996" />
   <path
   id="_91105824"
   d="m 378.405,3129.14 c -3.44686,-33.31 55.17652,10.4409 0,0 z"
   style="fill:#eeeed4;stroke:#1f1a17;stroke-width:3.98995996" />
   <path
   id="_91105752"
   d="m 400.107,3114.37 c -0.20323,-37.8894 46.39584,-5.1333 0,0 z"
   style="fill:#eeeed4;stroke:#1f1a17;stroke-width:3.98995996" />
   <path
   id="_91105680"
   d="m 484.149,3064.9 c -18.3965,42.09 -63.02326,49.5389 -59.48139,4.7099 4.59714,-6.849 54.77578,-15.3336 59.48139,-4.7099 z"
   style="fill:#eeeed4;stroke:#1f1a17;stroke-width:3.98995996" />
   <path
   id="_91105608"
   d="m 445.687,3125.1 c -6.93024,-38.8795 54.26256,-17.6633 0,0 z"
   style="fill:#eeeed4;stroke:#1f1a17;stroke-width:3.98995996" />
   <path
   id="_91105536"
   d="m 476.587,3127.59 c -31.15625,-35.4839 41.27181,-11.1204 61.1673,-24.7444 -0.47737,29.6816 -11.0925,76.9767 -53.78061,63.1771 -31.68535,14.5096 -34.89698,-30.4489 -7.38669,-38.4327 z"
   style="fill:#eeeed4;stroke:#1f1a17;stroke-width:3.98995996" />
   <path
   id="_91105464"
   d="m 500.932,3186.84 c -29.9215,21.8945 -27.59385,-41.2347 0,0 z"
   style="fill:#eeeed4;stroke:#1f1a17;stroke-width:3.98995996" />
   <path
   id="_91105392"
   d="m 455.089,3173.51 c 36.90565,-6.1142 -15.80878,38.8405 0,0 z"
   style="fill:#eeeed4;stroke:#1f1a17;stroke-width:3.98995996" />
   <path
   id="_91105320"
   d="m 455.666,3214.27 c 29.43766,-40.8698 34.73818,18.9077 0,0 z"
   style="fill:#eeeed4;stroke:#1f1a17;stroke-width:3.98995996" />
   <path
   id="_91105248"
   d="m 537.701,3142.6 c 24.72683,-28.8 12.7357,21.0916 0,0 z"
   style="fill:#eeeed4;stroke:#1f1a17;stroke-width:3.98995996" />
   <path
   id="_91105176"
   d="m 537.093,3150.98 c 28.32711,25.9095 -33.24106,23.8054 0,0 z"
   style="fill:#eeeed4;stroke:#1f1a17;stroke-width:3.98995996" />
   <path
   id="_91105104"
   d="m 623.04,3214.18 c 30.86505,4.5998 -36.39082,9.3718 -0.10391,-0.021 z"
   style="fill:#eeeed4;stroke:#1f1a17;stroke-width:3.98995996" />
   <path
   id="_91105032"
   d="m 709.416,3181.17 c 19.93967,19.6204 -45.71231,15.0998 0,0 z"
   style="fill:#eeeed4;stroke:#1f1a17;stroke-width:3.98995996" />
  </g>
  
  
  
  
  
  
  
  
  
  
  
  
  
  
  
  
  
  
  
  
  
  
  
  
 <path
   id="path1427"
   d="m 1102.1927,2430.5828 c -2.9646,27.854 -41.3077,-1.3419 -15.2859,-11.6205 7.4012,-2.2735 15.5007,3.8672 15.2859,11.6205 z"
   style="fill:#10270e;fill-opacity:1;stroke-width:1.00540686" /><text
   id="text3273"
   y="2397.1973"
   x="977.86646"
   style="font-style:normal;font-weight:normal;font-size:40.21627045px;line-height:1.25;font-family:sans-serif;letter-spacing:0px;word-spacing:0px;fill:#000000;fill-opacity:1;stroke:none;stroke-width:1.00540686"
   xml:space="preserve"><tspan
     style="stroke-width:1.00540686"
     y="2397.1973"
     x="977.86646"
     id="tspan3271">JYVÄSKYLÄ</tspan></text>
</g>
</svg>